<svg width="63" height="62" viewBox="0 0 63 62" fill="none" xmlns="http://www.w3.org/2000/svg">
<path d="M30.9844 15.374C30.6218 16.1295 30.2316 16.8737 29.8115 17.6055C28.3661 20.1552 26.5844 22.4645 24.4736 24.5273C22.4192 26.6196 20.1057 28.4036 17.541 29.876L17.5322 29.8818L17.5234 29.8867C16.8107 30.2901 16.0829 30.6649 15.3418 31.0146C16.074 31.3702 16.7934 31.7539 17.5 32.165C20.0825 33.5998 22.4099 35.3713 24.4736 37.4727L24.8682 37.8652C26.821 39.8437 28.4784 42.0572 29.835 44.499H29.834C30.2448 45.205 30.6281 45.9237 30.9834 46.6553C31.3336 45.9164 31.7096 45.1898 32.1133 44.4766L32.1182 44.4678L32.124 44.459C33.6091 41.8721 35.4107 39.5403 37.5264 37.4727C39.5757 35.3856 41.8667 33.6215 44.3945 32.1885L44.8809 31.9141C45.4541 31.5975 46.0358 31.2992 46.625 31.0176C45.884 30.6705 45.1532 30.2987 44.4346 29.8994L44.4023 29.8818L44.3711 29.8633C41.8544 28.3912 39.5712 26.6102 37.5264 24.5273C35.4202 22.469 33.6215 20.1675 32.1367 17.6289L32.1182 17.5977L32.1006 17.5654C31.7019 16.8478 31.3307 16.1167 30.9844 15.374ZM54.2461 31.0811C54.2272 31.2693 54.1418 31.4572 53.9912 31.6455C53.862 31.8177 53.6899 31.9471 53.4746 32.0332C50.8484 32.7221 48.3727 33.7337 46.0479 35.0684C43.7659 36.36 41.699 37.9532 39.8477 39.8477C37.9532 41.699 36.3386 43.7873 35.0039 46.1123C33.7123 48.3942 32.7221 50.8269 32.0332 53.4102C31.9471 53.6685 31.7963 53.8844 31.5811 54.0566L31.4482 54.1406C31.3109 54.2134 31.1616 54.25 31 54.25L30.8389 54.2383C30.7311 54.2221 30.6234 54.1892 30.5156 54.1406L30.3545 54.0566C30.2252 53.9274 30.1198 53.7735 30.0391 53.5957L29.9668 53.4102C29.321 50.9883 28.3912 48.6989 27.1777 46.542L26.9316 46.1123C25.7208 43.9327 24.2445 41.9616 22.5039 40.1982L22.1523 39.8477C20.4166 38.0715 18.4724 36.5607 16.3203 35.3145L15.8877 35.0684C13.7484 33.8171 11.4765 32.8497 9.07227 32.166L8.58984 32.0332C8.33151 31.9471 8.11558 31.8177 7.94336 31.6455C7.81436 31.4304 7.75 31.2151 7.75 31C7.75 30.7849 7.81435 30.5911 7.94336 30.4189C8.07249 30.2575 8.21385 30.1318 8.36719 30.043L8.52539 29.9668C10.9876 29.3209 13.2985 28.41 15.458 27.2344L15.8877 26.9961C18.0673 25.7448 20.0384 24.2471 21.8018 22.5039L22.1523 22.1523C23.9285 20.4166 25.4393 18.4912 26.6855 16.377L26.9316 15.9521C28.183 13.7724 29.1503 11.479 29.834 9.07227L29.9668 8.58984C30.0529 8.33152 30.1823 8.13796 30.3545 8.00879C30.5267 7.83657 30.7417 7.75 31 7.75C31.2583 7.75 31.4733 7.83657 31.6455 8.00879C31.8608 8.13796 31.9901 8.31011 32.0332 8.52539C32.7221 11.1516 33.7123 13.6273 35.0039 15.9521C36.3386 18.2341 37.9532 20.301 39.8477 22.1523C41.699 24.0468 43.7659 25.6614 46.0479 26.9961C48.3728 28.2877 50.8269 29.2779 53.4102 29.9668C53.6685 30.0529 53.862 30.2037 53.9912 30.4189C54.1634 30.5912 54.25 30.7847 54.25 31L54.2461 31.0811Z" fill="url(#paint0_linear_30062_27)"/>
<defs>
<linearGradient id="paint0_linear_30062_27" x1="7.75" y1="54.25" x2="54.25" y2="7.75" gradientUnits="userSpaceOnUse">
<stop stop-color="#3186FF"/>
<stop offset="0.49754" stop-color="#346BF1"/>
<stop offset="1" stop-color="#4FA0FF"/>
</linearGradient>
</defs>
</svg>
